# xmcd CD database file
#
# Track frame offsets:
#	182
#	14925
#	28805
#	43575
#	57892
#	71842
#	85037
#	97582
#	116860
#	130662
#
# Disc length: 1919 seconds
#
# Revision: 0
# Processed by: cddbd v1.4PL0 Copyright (c) Steve Scherf et al.
# Submitted via: CDex 1.50Beta7
#
DISCID=84077d0a
DTITLE=Roger Whittaker - From the Heart
DYEAR=1900
DGENRE=Country
TTITLE0=You Needed Me
TTITLE1=Gentle On My Mind
TTITLE2=True Love
TTITLE3=Make the World Go Away
TTITLE4=I'd Fall In Love Tonight
TTITLE5=Unchained Melody
TTITLE6=Somewhere My Love
TTITLE7=Always On My Mind
TTITLE8=Scarlet Ribbons
TTITLE9=Vaya Con Dios
EXTD=
EXTT0=
EXTT1=
EXTT2=
EXTT3=
EXTT4=
EXTT5=
EXTT6=
EXTT7=
EXTT8=
EXTT9=
PLAYORDER=
